<?xml version="1.0" encoding="utf-8"?>
<!-- Generator: Adobe Illustrator 18.1.1, SVG Export Plug-In . SVG Version: 6.00 Build 0)  -->
<svg version="1.1" id="board" xmlns="http://www.w3.org/2000/svg" xmlns:xlink="http://www.w3.org/1999/xlink" x="0px" y="0px"
	 viewBox="0 0 960 560" enable-background="new 0 0 960 560" xml:space="preserve">
<circle id="rim" stroke="#000000" stroke-miterlimit="10" cx="480" cy="280" r="231.5"/>
<radialGradient id="frame_1_" cx="480" cy="280" r="230" gradientUnits="userSpaceOnUse">
	<stop  offset="0" style="stop-color:#4D4D4D"/>
	<stop  offset="1" style="stop-color:#1A1A1A"/>
</radialGradient>
<circle id="frame" fill="url(#frame_1_)" stroke="#333333" stroke-miterlimit="10" cx="480" cy="280" r="230"/>
<circle id="lense" opacity="0.7" fill="#1A1A1A" cx="480" cy="280" r="45"/>
<g id="pad4">
	<g>
		<path fill="#39B54A" d="M427.9,286H277.2c-8.7,0-15.6,7.4-15,16.1c7.9,104.2,91.5,187.8,195.6,195.6c8.7,0.7,16.1-6.2,16.1-15
			V332.1C449.8,329.4,430.6,310.2,427.9,286z"/>
	</g>
	<defs>
		<filter id="Adobe_OpacityMaskFilter" filterUnits="userSpaceOnUse" x="262.2" y="286" width="211.8" height="211.8">
			
				<feColorMatrix  type="matrix" values="-1 0 0 0 1  0 -1 0 0 1  0 0 -1 0 1  0 0 0 1 0" color-interpolation-filters="sRGB" result="source"/>
		</filter>
	</defs>
	<mask maskUnits="userSpaceOnUse" x="262.2" y="286" width="211.8" height="211.8" id="SVGID_1_">
		<g filter="url(#Adobe_OpacityMaskFilter)">
			<image overflow="visible" width="216" height="216" xlink:href="F7656396D6FA09D4.jpg"  transform="matrix(1 0 0 1 260 284)">
			</image>
		</g>
	</mask>
	<g opacity="0.25" mask="url(#SVGID_1_)">
		<path d="M427.9,286H277.2c-8.7,0-15.6,7.4-15,16.1c7.9,104.2,91.5,187.8,195.6,195.6c8.7,0.7,16.1-6.2,16.1-15V332.1
			C449.8,329.4,430.6,310.2,427.9,286z"/>
	</g>
</g>
<g id="pad3">
	<g>
		<path fill="#0055FF" d="M682.8,286H532.1c-2.8,24.2-22,43.4-46.1,46.1v150.7c0,8.7,7.4,15.6,16.1,15
			c104.2-7.9,187.8-91.5,195.6-195.6C698.5,293.4,691.6,286,682.8,286z"/>
	</g>
	<defs>
		<filter id="Adobe_OpacityMaskFilter_1_" filterUnits="userSpaceOnUse" x="486" y="286" width="211.8" height="211.8">
			
				<feColorMatrix  type="matrix" values="-1 0 0 0 1  0 -1 0 0 1  0 0 -1 0 1  0 0 0 1 0" color-interpolation-filters="sRGB" result="source"/>
		</filter>
	</defs>
	<mask maskUnits="userSpaceOnUse" x="486" y="286" width="211.8" height="211.8" id="SVGID_2_">
		<g filter="url(#Adobe_OpacityMaskFilter_1_)">
			<image overflow="visible" width="216" height="216" xlink:href="F7656396D6FA09D5.jpg"  transform="matrix(1 0 0 1 484 284)">
			</image>
		</g>
	</mask>
	<g opacity="0.25" mask="url(#SVGID_2_)">
		<path d="M682.8,286H532.1c-2.8,24.2-22,43.4-46.1,46.1v150.7c0,8.7,7.4,15.6,16.1,15c104.2-7.9,187.8-91.5,195.6-195.6
			C698.5,293.4,691.6,286,682.8,286z"/>
	</g>
</g>
<g id="pad2">
	<g>
		<path fill="#FFFF00" d="M697.8,257.9c-7.9-104.2-91.5-187.8-195.6-195.6c-8.7-0.7-16.1,6.2-16.1,15v150.7
			c24.2,2.8,43.4,22,46.1,46.1h150.7C691.6,274,698.5,266.6,697.8,257.9z"/>
	</g>
	<defs>
		<filter id="Adobe_OpacityMaskFilter_2_" filterUnits="userSpaceOnUse" x="486" y="62.2" width="211.8" height="211.8">
			
				<feColorMatrix  type="matrix" values="-1 0 0 0 1  0 -1 0 0 1  0 0 -1 0 1  0 0 0 1 0" color-interpolation-filters="sRGB" result="source"/>
		</filter>
	</defs>
	<mask maskUnits="userSpaceOnUse" x="486" y="62.2" width="211.8" height="211.8" id="SVGID_3_">
		<g filter="url(#Adobe_OpacityMaskFilter_2_)">
			<image overflow="visible" width="216" height="216" xlink:href="F7656396D6FA09D3.jpg"  transform="matrix(1 0 0 1 484 60)">
			</image>
		</g>
	</mask>
	<g opacity="0.25" mask="url(#SVGID_3_)">
		<path d="M697.8,257.9c-7.9-104.2-91.5-187.8-195.6-195.6c-8.7-0.7-16.1,6.2-16.1,15v150.7c24.2,2.8,43.4,22,46.1,46.1h150.7
			C691.6,274,698.5,266.6,697.8,257.9z"/>
	</g>
</g>
<g id="pad1">
	<g>
		<path fill="#ED1C24" d="M474,227.9V77.2c0-8.7-7.4-15.6-16.1-15c-104.2,7.9-187.8,91.5-195.6,195.6c-0.7,8.7,6.2,16.1,15,16.1
			h150.7C430.6,249.8,449.8,230.6,474,227.9z"/>
	</g>
	<defs>
		<filter id="Adobe_OpacityMaskFilter_3_" filterUnits="userSpaceOnUse" x="262.2" y="62.2" width="211.8" height="211.8">
			
				<feColorMatrix  type="matrix" values="-1 0 0 0 1  0 -1 0 0 1  0 0 -1 0 1  0 0 0 1 0" color-interpolation-filters="sRGB" result="source"/>
		</filter>
	</defs>
	<mask maskUnits="userSpaceOnUse" x="262.2" y="62.2" width="211.8" height="211.8" id="SVGID_4_">
		<g filter="url(#Adobe_OpacityMaskFilter_3_)">
			<image overflow="visible" width="216" height="216" xlink:href="F7656396D6FA09DC.jpg"  transform="matrix(1 0 0 1 260 60)">
			</image>
		</g>
	</mask>
	<g opacity="0.25" mask="url(#SVGID_4_)">
		<path d="M474,227.9V77.2c0-8.7-7.4-15.6-16.1-15c-104.2,7.9-187.8,91.5-195.6,195.6c-0.7,8.7,6.2,16.1,15,16.1h150.7
			C430.6,249.8,449.8,230.6,474,227.9z"/>
	</g>
</g>
</svg>
