<svg xmlns="http://www.w3.org/2000/svg" viewBox="0 0 471 471" enable-background="new 0 0 471 471">
<defs>
	<filter id="drop-shadow">
		<feGaussianBlur in="SourceAlpha" result="blur" stdDeviation="5" />
		<feComponentTransfer>
			<feFuncA type="linear" slope="0.5"/>
		</feComponentTransfer>
		<feMerge>
			<feMergeNode/>
			<feMergeNode in="SourceGraphic" mode="normal"/>
		</feMerge>
	</filter>
</defs>
<radialGradient id="trim-gradient" cx="235.5" cy="235.5" r="235" gradientUnits="userSpaceOnUse">
	<stop offset="0" style="stop-color:#4D4D4D"/>
	<stop offset="1" style="stop-color:#1A1A1A"/>
</radialGradient>
<path fill="url(#trim-gradient)" filter="url(#drop-shadow)" stroke="#333333" stroke-miterlimit="10" d="M235.5,0.5c-129.8,0-235,105.2-235,235s105.2,235,235,235 s235-105.2,235-235S365.3,0.5,235.5,0.5z M23,208.8c7.5-99,86.8-178.3,185.8-185.8c8.3-0.6,15.2,6,15.2,14.3v109.5 c-40,5.1-72.2,37.3-77.3,77.3H37.2C28.9,224,22.4,217,23,208.8z M224,433.8c0,8.3-7,14.8-15.2,14.2c-99-7.5-178.3-86.8-185.8-185.8 c-0.6-8.3,6-15.2,14.3-15.2h109.5c5.1,40,37.3,72.2,77.3,77.3V433.8z M247,37.2c0-8.3,7-14.8,15.2-14.2 c99,7.5,178.3,86.8,185.8,185.8c0.6,8.3-6,15.2-14.3,15.2H324.3c-5.1-40-37.3-72.2-77.3-77.3V37.2z M448,262.2 c-7.5,99-86.8,178.3-185.8,185.8c-8.3,0.6-15.2-6-15.2-14.3V324.3c40-5.1,72.2-37.3,77.3-77.3h109.5C442.1,247,448.6,254,448,262.2z"/>
<circle id="lense_1_" opacity="0.9" fill="#999999" cx="235.5" cy="235.5" r="68.2"/>
<g><path fill="#1A1A1A" d="M298.5,227.5c0.3,2.7,0.5,5.4,0.5,8c0,35-28.5,63.4-63.5,63.4c-35,0-63.4-28.5-63.4-63.4 c0-2.6,0.2-5.3,0.5-8H298.5 M299.3,226.5H171.7c-0.4,2.9-0.6,5.9-0.6,9c0,35.6,28.9,64.4,64.4,64.4s64.4-28.9,64.4-64.4 C299.9,232.4,299.7,229.4,299.3,226.5L299.3,226.5z"/></g>
<g id="top"><path d="M172.7,223.5c5.6-30,32-52.1,62.8-52.1c30.9,0,57.2,22.1,62.8,52.1H172.7z"/><path fill="#1A1A1A" d="M235.5,172.4c30.4,0,56.4,21.1,62.2,51.1H173.3C179.1,193.5,205.1,172.4,235.5,172.4 M235.5,171.4 c-31.7,0-58.1,23.1-63.4,53.1h126.9C293.6,194.5,267.2,171.4,235.5,171.4L235.5,171.4z"/></g>
</svg>
