<svg xmlns="http://www.w3.org/2000/svg" viewBox="0 0 471 471" enable-background="new 0 0 471 471">
<defs>
	<filter id="drop-shadow">
		<feGaussianBlur in="SourceAlpha" result="blur" stdDeviation="5" />
		<feComponentTransfer>
			<feFuncA type="linear" slope="0.5"/>
		</feComponentTransfer>
		<feMerge>
			<feMergeNode/>
			<feMergeNode in="SourceGraphic" mode="normal"/>
		</feMerge>
	</filter>
</defs>
<radialGradient id="trim-gradient" cx="235.5" cy="235.5" r="235" gradientUnits="userSpaceOnUse">
	<stop offset="0" style="stop-color:#4D4D4D"/>
	<stop offset="1" style="stop-color:#1A1A1A"/>
</radialGradient>
<path fill="url(#trim-gradient)" filter="url(#drop-shadow)" stroke="#333333" stroke-miterlimit="10" d="M235.5,0.5c-129.8,0-235,105.2-235,235s105.2,235,235,235 s235-105.2,235-235S365.3,0.5,235.5,0.5z M23,208.8c7.5-99,86.8-178.3,185.8-185.8c8.3-0.6,15.2,6,15.2,14.3v109.5 c-40,5.1-72.2,37.3-77.3,77.3H37.2C28.9,224,22.4,217,23,208.8z M224,433.8c0,8.3-7,14.8-15.2,14.2c-99-7.5-178.3-86.8-185.8-185.8 c-0.6-8.3,6-15.2,14.3-15.2h109.5c5.1,40,37.3,72.2,77.3,77.3V433.8z M247,37.2c0-8.3,7-14.8,15.2-14.2 c99,7.5,178.3,86.8,185.8,185.8c0.6,8.3-6,15.2-14.3,15.2H324.3c-5.1-40-37.3-72.2-77.3-77.3V37.2z M448,262.2	c-7.5,99-86.8,178.3-185.8,185.8c-8.3,0.6-15.2-6-15.2-14.3V324.3c40-5.1,72.2-37.3,77.3-77.3h109.5C442.1,247,448.6,254,448,262.2z"/>
<circle id="lense" opacity="0.9" fill="#1A1A1A" cx="235.5" cy="235.5" r="68.2"/>
<linearGradient id="lense-gradient" gradientUnits="userSpaceOnUse" x1="235.5" y1="303.7096" x2="235.5" y2="224.493">
	<stop offset="0" style="stop-color:#B3B3B3"/>
	<stop offset="1" style="stop-color:#1A1A1A"/>
</linearGradient>
<path opacity="0.7" fill="url(#lense-gradient)" d="M168.2,224.5c-0.6,3.6-0.9,7.3-0.9,11c0,37.7,30.5,68.2,68.2,68.2s68.2-30.5,68.2-68.2 c0-3.7-0.3-7.4-0.9-11H168.2z"/>
</svg>
