<svg id="Logo" xmlns="http://www.w3.org/2000/svg" viewBox="0 0 435.7 88" enable-background="new 0 0 435.7 88">
<g fill="#999">
<path id="N" d="M354.3,87.4c0-28.8,0-57.2,0-86.1c9.2,0,18.6,0,28.3,0c0.2,1.1,0.4,2.4,0.7,3.8c0.5-0.3,0.8-0.6,1.3-0.8 c3.4-1.2,6.7-3.1,10.1-3.3c9.5-0.5,19-0.2,28.5-0.1c6.6,0,10.5,3.2,11.8,9.7c0.3,1.5,0.7,3,0.7,4.4c0,24,0,48,0,72.3 c-9.7,0-19.4,0-30.3,0c0-11.4,0-22.7,0-34c0-10.2-0.2-20.3-0.3-30.5c-0.1-8.9-1.3-10.1-10.1-10.1c-0.7,0-1.3,0-2,0 c-6.7,0.2-9,2.4-9.1,9.1c-0.1,19.8,0,39.7,0,59.5c0,1.8,0,3.6,0,5.8C374.2,87.4,364.6,87.4,354.3,87.4z"/><path id="O"  d="M349,45.5c0,9.5,0,19,0,28.5c0,8.5-4.4,13.6-13,13.8c-17.8,0.3-35.6,0.4-53.4,0c-9-0.2-13.6-5-13.8-14.3 c-0.5-19.1-0.7-38.3-0.5-57.4c0.1-10,5.4-14.8,15.5-14.9C300.6,0.9,317.4,1,334.2,1c9,0,14.6,5.4,14.8,14.5 C349.1,25.5,349,35.5,349,45.5z M298.7,44.8C298.7,44.8,298.6,44.8,298.7,44.8c-0.1,6.3-0.1,12.6,0,18.9c0,12.2,0.1,12.2,12.2,11.6 c6.9-0.3,7.5-1,7.5-8.1c0-13.8-0.1-27.6-0.1-41.4c0-12.6,0-12.4-12.9-12.1c-4.7,0.1-6.7,2.1-6.7,6.6 C298.7,28.5,298.7,36.6,298.7,44.8z"/><path id="M" d="M262.8,15.9c-0.2-9.4-6.6-14.6-16.1-14.8c-7.3-0.1-14.7,0.1-22-0.1c-7.4-0.2-14.4,0.2-18.8,7.3 c-4.2-6.2-9.7-7.4-15.4-7.5l0,0l-0.1,0c0,0,0,0-0.1,0l-20.3-0.1c-0.1,0-0.1,0-0.2,0l-0.3,0l0,0c-4.7,0-9.3,0.9-13.3,5.3 c-0.3-1.9-0.5-3.3-0.6-4.6c-9.6,0-18.9,0-28.1,0c0,28.9,0,57.4,0,86.1c10.3,0,20.2,0,30,0c0.2-0.7,0.4-1,0.4-1.3c0-19.7,0-39.3,0-59 c0-13.3,0.2-13.6,13.3-13.5c7.2,0,8.8,1.6,8.8,8.8c0,20,0,40,0,60c0,1.7,0.2,3.5,0.3,5.3c10.4,0,20.2,0,30.7,0c0-2.3,0-4.1,0-6 c0-18.2,0-36.3,0-54.5c0-12.9,0.6-13.4,13.5-13.4c7,0,8.5,1.5,8.5,8.4c0.1,20,0.1,40,0.1,60c0,1.8,0,3.5,0,5.4c10.3,0,19.9,0,29.7,0 C262.9,63.5,263.2,39.7,262.8,15.9z"/>
<path id="I" d="M121.4,1.3c0,28.5,0,56.9,0,85.7c-9.9,0-19.8,0-30.4,0c0-28.4,0-56.9,0-85.7C100.8,1.3,110.9,1.3,121.4,1.3z"/><path id="S" d="M84.6,32.6c-10,0-19.8,0-30.4,0c0-4.1,0.1-8.1,0-12c-0.1-5.3-1.8-7.4-7.1-7.6c-15.7-0.6-16,0.6-15.4,14.2 c0.1,1.2,0,2.3,0,3.5c0.2,6.1,1.3,7.4,7.4,7.6c9.3,0.3,18.7,0.4,28,0.5c12.7,0.2,18.1,5.5,18.4,18.3c0.1,5.3,0.1,10.7-0.1,16 c-0.5,8.8-4.9,13.9-13.6,14.1c-19,0.4-38,0.5-57,0.1C5.1,87.3,0.4,81.6,0.2,71.9c-0.1-4.6,0-9.2,0-14.2c10.6,0,20.7,0,31.7,0 c0,3.8,0.1,7.4,0,10.9c-0.1,4.2,1.8,6.2,5.9,6.3c3.7,0,7.3,0.1,11-0.1c3.5-0.2,5.5-1.9,5.5-5.7c0-3.7,0.1-7.3,0.1-11 c-0.1-5.6-1.5-7.1-7.1-7.2c-9.7-0.1-19.3,0-29-0.1c-12,0-18.1-6.2-18.2-18.1c0-6.7-0.1-13.3,0-20C0.1,5.3,5.1,0.1,12.5,0 C32.2,0,51.9,0,71.5,0.2C81.4,0.3,85,4.4,85,14.1c0,5.7,0,11.3-0.1,17C85,31.4,84.8,31.7,84.6,32.6z"/></g>
</svg>
