<svg id="pad-mask" xmlns="http://www.w3.org/2000/svg" viewBox="0 0 471 471" enable-background="new 0 0 471 471">
<g><path d="M224.5,146.7V37.2c0-8.3-7.2-14.8-15.5-14.2c-99,7.5-178.4,87-185.9,186c-0.6,8.3,5.8,15.5,14.1,15.5h109.5 C151.8,183.5,183.5,151.8,224.5,146.7z"/></g><g><path d="M448,209c-7.5-99-87-178.4-186-185.9c-8.3-0.6-15.5,5.8-15.5,14.1v109.5c41,5.1,72.7,36.8,77.8,77.8h109.5 C442.1,224.5,448.6,217.3,448,209z"/></g><g><path d="M433.8,246.5H324.3c-5.1,41-36.8,72.7-77.8,77.8v109.5c0,8.3,7.2,14.8,15.5,14.2c99-7.5,178.4-87,185.9-186 C448.5,253.7,442.1,246.5,433.8,246.5z"/></g><g><path d="M146.7,246.5H37.2c-8.3,0-14.8,7.2-14.2,15.5c7.5,99,87,178.4,186,185.9c8.3,0.6,15.5-5.8,15.5-14.1V324.3 C183.5,319.2,151.8,287.5,146.7,246.5z"/></g>
</svg>
